<svg xmlns="http://www.w3.org/2000/svg" xmlns:xlink="http://www.w3.org/1999/xlink" id="Ebene_2" x="0" y="0" version="1.1" viewBox="0 0 36 32" xml:space="preserve" style="enable-background:new 0 0 36 32"><style type="text/css">.st0{fill:#96c}.st1{fill:#ffb238}.st2{fill:#639}.st3,.st4{fill:#fff;stroke:#639;stroke-width:1.4173;stroke-miterlimit:10}.st4{fill:#96c;stroke-width:1.4661}</style><g><g><path d="M17.7,10.5c0.2-0.2,0.2-0.5,0-0.6l-0.7-0.7c-0.2-0.2-0.2-0.5,0-0.6l0.7-0.7c0.2-0.2,0.2-0.5,0-0.6l-0.5-0.5 c-0.2-0.2-0.5-0.2-0.6,0l-0.7,0.7c-0.2,0.2-0.5,0.2-0.6,0l-0.7-0.7c-0.2-0.2-0.5-0.2-0.6,0L13.3,7c-0.2,0.2-0.2,0.5,0,0.6l0.7,0.7 c0.2,0.2,0.2,0.5,0,0.6l-0.7,0.7c-0.2,0.2-0.2,0.5,0,0.6l0.5,0.5c0.2,0.2,0.5,0.2,0.6,0l0.7-0.7c0.2-0.2,0.5-0.2,0.6,0l0.7,0.7 c0.2,0.2,0.5,0.2,0.6,0L17.7,10.5z" class="st0"/></g><g><path d="M26.3,7.9c0.2-0.2,0.2-0.5,0-0.6l-0.5-0.5c-0.2-0.2-0.2-0.5,0-0.6l0.5-0.5c0.2-0.2,0.2-0.5,0-0.6l-0.3-0.3 c-0.2-0.2-0.5-0.2-0.6,0l-0.5,0.5c-0.2,0.2-0.5,0.2-0.6,0l-0.5-0.5c-0.2-0.2-0.5-0.2-0.6,0L22.9,5c-0.2,0.2-0.2,0.5,0,0.6l0.5,0.5 c0.2,0.2,0.2,0.5,0,0.6l-0.5,0.5c-0.2,0.2-0.2,0.5,0,0.6l0.3,0.3c0.2,0.2,0.5,0.2,0.6,0l0.5-0.5c0.2-0.2,0.5-0.2,0.6,0l0.5,0.5 c0.2,0.2,0.5,0.2,0.6,0L26.3,7.9z" class="st1"/></g><g><path d="M26.7,17.1c0.2-0.2,0.1-0.5-0.1-0.7l-0.1-0.1c-0.2-0.2-0.2-0.5,0-0.7l0.1-0.1c0.2-0.2,0.2-0.5,0.1-0.7 c-0.2-0.2-0.5-0.1-0.7,0.1L26,15.1c-0.2,0.2-0.5,0.2-0.7,0L25.2,15c-0.2-0.2-0.5-0.2-0.7-0.1c-0.2,0.2-0.1,0.5,0.1,0.7l0.1,0.1 c0.2,0.2,0.2,0.5,0,0.7l-0.1,0.1c-0.2,0.2-0.2,0.5-0.1,0.7s0.5,0.1,0.7-0.1l0.1-0.1c0.2-0.2,0.5-0.2,0.7,0l0.1,0.1 C26.2,17.2,26.5,17.3,26.7,17.1z" class="st2"/></g><rect width="3" height="5" x="19.2" y="11.4" class="st3" transform="matrix(0.7071 0.7071 -0.7071 0.7071 15.8974 -10.5279)"/><path d="M10.2,25.3l-0.9-0.9c-0.3-0.3-0.3-0.9,0-1.2l8.5-8.5l2.1,2.1l-8.5,8.5C11,25.7,10.5,25.7,10.2,25.3z" class="st4"/></g></svg>