<svg xmlns="http://www.w3.org/2000/svg" xmlns:xlink="http://www.w3.org/1999/xlink" width="27" height="27" version="1.1" viewBox="0 0 27 27"><title>icons/showcase</title><desc>Created with Sketch.</desc><defs><linearGradient id="linearGradient-1" x1="50%" x2="50%" y1="29.473%" y2="68.941%"><stop offset="0%" stop-color="#FFB238"/><stop offset="100%" stop-color="#FFB238" stop-opacity="0"/></linearGradient></defs><g id="Symbols" fill="none" fill-rule="evenodd" stroke="none" stroke-width="1"><g id="navigation/mobile" transform="translate(-302.000000, -11.000000)"><g id="Showcase" transform="translate(290.000000, 11.000000)"><g id="icons/showcase" transform="translate(14.000000, 0.000000)"><polygon id="Path" fill="url(#linearGradient-1)" stroke="#639" stroke-width="1.417" points="9.188 20.188 7 25 4.813 20.188 0 18 4.813 15.813 7 11 9.188 15.813 14 18"/><polygon id="Path" stroke="#9D7CBF" points="18.91 11.91 17.5 15 16.09 11.91 13 10.5 16.09 9.09 17.5 6 18.91 9.09 22 10.5"/><polygon id="Path" fill="#FFB238" points="10.253 5.253 9 8 7.747 5.253 5 4 7.747 2.747 9 0 10.253 2.747 13 4"/></g></g></g></g></svg>